<?xml version="1.0" encoding="UTF-8"?>
<svg height="20" viewBox="0 0 20 20" width="20" xmlns="http://www.w3.org/2000/svg">
    <path
        d="m103.7248 1125.0442-5.45-5.733c-.189-.198-.451-.311-.725-.311h-11.55c-1.104 0-2 .896-2 2v7c0 .552.448 1 1 1 .553 0 1-.448 1-1v-6c0-.552.448-1 1-1h9v4c0 1.105.896 2 2 2h4v1c0 .552.448 1 1 1 .553 0 1-.448 1-1v-2.267c0-.256-.098-.503-.275-.689m-8.725 8.956c0-.552-.447-1-1-1h-1v2h1c.553 0 1-.447 1-1m.725 2.449.631 1.263c.296.592-.134 1.288-.796 1.288h-.01c-.337 0-.645-.19-.796-.492l-.754-1.508h-1v1.11c0 .492-.398.89-.89.89h-.22c-.491 0-.89-.398-.89-.89v-6.22c0-.491.399-.89.89-.89h1.963c1.562 0 2.971 1.13 3.131 2.684.118 1.142-.41 2.166-1.259 2.765m7.275.551h-2.5c-.276 0-.5-.224-.5-.5v-4.5c0-.552-.447-1-1-1-.552 0-1 .448-1 1v5 1c0 .552.448 1 1 1h1 3c.553 0 1-.448 1-1s-.447-1-1-1m-13-5.11v4.11c0 1.711-1.431 3.087-3.161 2.996-1.622-.085-2.839-1.541-2.839-3.166v-3.94c0-.491.399-.89.89-.89h.22c.492 0 .89.399.89.89v4.11c0 .552.448 1 1 1 .553 0 1-.448 1-1v-4.11c0-.491.399-.89.89-.89h.22c.492 0 .89.399.89.89"
        fill-rule="evenodd" transform="translate(-84 -1119)" />
</svg>